<svg width="87" height="68" viewBox="0 0 87 68" fill="none" xmlns="http://www.w3.org/2000/svg">
<path d="M19.3657 67.26C13.4657 67.26 8.83 64.9843 5.45857 60.4328C2.08714 55.8814 0.40143 49.9814 0.40143 42.7329C0.40143 34.3043 2.59286 26.2128 6.97572 18.4586C11.3586 10.7043 18.3543 4.55142 27.9629 -1.51089e-05L38.5829 9.86142C31.6714 12.2214 26.1086 15.8457 21.8943 20.7343C17.68 25.4543 14.9829 30.4271 13.8029 35.6529L14.8143 36.1586C15.4886 35.6529 16.3314 35.2314 17.3429 34.8943C18.3543 34.5571 19.8714 34.3886 21.8943 34.3886C24.9286 34.3886 27.9629 35.7371 30.9971 38.4343C34.2 40.9628 35.8014 44.9243 35.8014 50.3186C35.8014 54.87 34.2 58.8314 30.9971 62.2028C27.7943 65.5743 23.9171 67.26 19.3657 67.26ZM66.9029 67.26C61.0029 67.26 56.3671 64.9843 52.9957 60.4328C49.6243 55.8814 47.9386 49.9814 47.9386 42.7329C47.9386 34.3043 50.13 26.2128 54.5129 18.4586C58.8957 10.7043 65.8914 4.55142 75.5 -1.51089e-05L86.12 9.86142C79.2086 12.2214 73.6457 15.8457 69.4314 20.7343C65.2171 25.4543 62.52 30.4271 61.34 35.6529L62.3514 36.1586C63.0257 35.6529 63.8686 35.2314 64.88 34.8943C65.8914 34.5571 67.4086 34.3886 69.4314 34.3886C72.4657 34.3886 75.5 35.7371 78.5343 38.4343C81.7371 40.9628 83.3386 44.9243 83.3386 50.3186C83.3386 54.87 81.7371 58.8314 78.5343 62.2028C75.3314 65.5743 71.4543 67.26 66.9029 67.26Z" fill="#498352"/>
</svg>
