<svg width="218" height="43" viewBox="0 0 218 43" fill="none" xmlns="http://www.w3.org/2000/svg">
<path d="M30.3968 17.9308L24.6939 17.1019L22.1446 11.9337C22.075 11.7922 21.9604 11.6776 21.8189 11.608C21.464 11.4328 21.0328 11.5788 20.8553 11.9337L18.306 17.1019L12.6032 17.9308C12.446 17.9532 12.3022 18.0273 12.1922 18.1396C12.0591 18.2764 11.9858 18.4604 11.9883 18.6512C11.9908 18.842 12.069 19.0239 12.2056 19.1571L16.3317 23.1799L15.3569 28.8602C15.334 28.9924 15.3487 29.1283 15.3991 29.2525C15.4496 29.3768 15.5338 29.4844 15.6423 29.5632C15.7508 29.642 15.8792 29.6889 16.013 29.6984C16.1468 29.7079 16.2805 29.6798 16.3991 29.6172L21.5 26.9353L26.6009 29.6172C26.7401 29.6913 26.9018 29.716 27.0568 29.6891C27.4476 29.6217 27.7104 29.2511 27.643 28.8602L26.6682 23.1799L30.7943 19.1571C30.9066 19.0471 30.9807 18.9033 31.0032 18.7461C31.0638 18.353 30.7898 17.9892 30.3968 17.9308V17.9308Z" fill="#FDA202"/>
<path d="M53.791 23.2148V24.6992H43.5176V23.6348L49.8848 13.7812H51.3594L49.7773 16.6328L45.5684 23.2148H53.791ZM51.8086 13.7812V28H50.002V13.7812H51.8086ZM55.6562 27.043C55.6562 26.737 55.7507 26.4798 55.9395 26.2715C56.1348 26.0566 56.4147 25.9492 56.7793 25.9492C57.1439 25.9492 57.4206 26.0566 57.6094 26.2715C57.8047 26.4798 57.9023 26.737 57.9023 27.043C57.9023 27.3424 57.8047 27.5964 57.6094 27.8047C57.4206 28.013 57.1439 28.1172 56.7793 28.1172C56.4147 28.1172 56.1348 28.013 55.9395 27.8047C55.7507 27.5964 55.6562 27.3424 55.6562 27.043ZM69.6699 24.1523C69.6699 25.0182 69.4681 25.7539 69.0645 26.3594C68.6673 26.9583 68.127 27.4141 67.4434 27.7266C66.7663 28.0391 66.0013 28.1953 65.1484 28.1953C64.2956 28.1953 63.5273 28.0391 62.8438 27.7266C62.1602 27.4141 61.6198 26.9583 61.2227 26.3594C60.8255 25.7539 60.627 25.0182 60.627 24.1523C60.627 23.5859 60.7344 23.0684 60.9492 22.5996C61.1706 22.1243 61.4798 21.7109 61.877 21.3594C62.2806 21.0078 62.7559 20.7376 63.3027 20.5488C63.8561 20.3535 64.4648 20.2559 65.1289 20.2559C66.0013 20.2559 66.7793 20.4251 67.4629 20.7637C68.1465 21.0957 68.6836 21.5547 69.0742 22.1406C69.4714 22.7266 69.6699 23.3971 69.6699 24.1523ZM67.8535 24.1133C67.8535 23.5859 67.7396 23.1204 67.5117 22.7168C67.2839 22.3066 66.9648 21.9876 66.5547 21.7598C66.1445 21.5319 65.6693 21.418 65.1289 21.418C64.5755 21.418 64.097 21.5319 63.6934 21.7598C63.2962 21.9876 62.987 22.3066 62.7656 22.7168C62.5443 23.1204 62.4336 23.5859 62.4336 24.1133C62.4336 24.6602 62.541 25.1289 62.7559 25.5195C62.9772 25.9036 63.2897 26.1999 63.6934 26.4082C64.1035 26.61 64.5885 26.7109 65.1484 26.7109C65.7083 26.7109 66.1901 26.61 66.5938 26.4082C66.9974 26.1999 67.3066 25.9036 67.5215 25.5195C67.7428 25.1289 67.8535 24.6602 67.8535 24.1133ZM69.3379 17.4824C69.3379 18.1725 69.1556 18.7943 68.791 19.3477C68.4264 19.901 67.9284 20.3372 67.2969 20.6562C66.6654 20.9753 65.9492 21.1348 65.1484 21.1348C64.3346 21.1348 63.6087 20.9753 62.9707 20.6562C62.3392 20.3372 61.8444 19.901 61.4863 19.3477C61.1283 18.7943 60.9492 18.1725 60.9492 17.4824C60.9492 16.6556 61.1283 15.9525 61.4863 15.373C61.8509 14.7936 62.349 14.3509 62.9805 14.0449C63.612 13.7389 64.3314 13.5859 65.1387 13.5859C65.9525 13.5859 66.6751 13.7389 67.3066 14.0449C67.9382 14.3509 68.4329 14.7936 68.791 15.373C69.1556 15.9525 69.3379 16.6556 69.3379 17.4824ZM67.5312 17.5117C67.5312 17.0365 67.4303 16.6165 67.2285 16.252C67.0267 15.8874 66.7467 15.6009 66.3887 15.3926C66.0306 15.1777 65.6139 15.0703 65.1387 15.0703C64.6634 15.0703 64.2467 15.1712 63.8887 15.373C63.5371 15.5684 63.2604 15.8483 63.0586 16.2129C62.8633 16.5775 62.7656 17.0104 62.7656 17.5117C62.7656 18 62.8633 18.4264 63.0586 18.791C63.2604 19.1556 63.5404 19.4388 63.8984 19.6406C64.2565 19.8424 64.6732 19.9434 65.1484 19.9434C65.6237 19.9434 66.0371 19.8424 66.3887 19.6406C66.7467 19.4388 67.0267 19.1556 67.2285 18.791C67.4303 18.4264 67.5312 18 67.5312 17.5117ZM77.043 22.3164V22.2188C77.043 20.7995 77.2025 19.5169 77.5215 18.3711C77.8405 17.2188 78.2474 16.2096 78.7422 15.3438C79.237 14.4779 79.7578 13.7617 80.3047 13.1953C80.8516 12.6224 81.3561 12.209 81.8184 11.9551L82.1992 13.1465C81.8151 13.4395 81.4245 13.8431 81.0273 14.3574C80.6367 14.8717 80.2754 15.5033 79.9434 16.252C79.6178 17.0007 79.3542 17.8698 79.1523 18.8594C78.9505 19.849 78.8496 20.9622 78.8496 22.1992V22.3359C78.8496 23.5729 78.9505 24.6895 79.1523 25.6855C79.3542 26.6751 79.6178 27.5475 79.9434 28.3027C80.2754 29.0579 80.6367 29.6992 81.0273 30.2266C81.4245 30.7604 81.8151 31.1836 82.1992 31.4961L81.8184 32.5898C81.3561 32.3359 80.8516 31.9225 80.3047 31.3496C79.7578 30.7832 79.237 30.0671 78.7422 29.2012C78.2474 28.3418 77.8405 27.3359 77.5215 26.1836C77.2025 25.0312 77.043 23.7422 77.043 22.3164ZM93.3809 23.2148V24.6992H83.1074V23.6348L89.4746 13.7812H90.9492L89.3672 16.6328L85.1582 23.2148H93.3809ZM91.3984 13.7812V28H89.5918V13.7812H91.3984ZM97.3066 21.2324L95.8613 20.8613L96.5742 13.7812H103.869V15.4512H98.1074L97.6777 19.3184C97.9382 19.1686 98.2669 19.0286 98.6641 18.8984C99.0677 18.7682 99.5299 18.7031 100.051 18.7031C100.708 18.7031 101.298 18.8171 101.818 19.0449C102.339 19.2663 102.782 19.5853 103.146 20.002C103.518 20.4186 103.801 20.9199 103.996 21.5059C104.191 22.0918 104.289 22.7461 104.289 23.4688C104.289 24.1523 104.195 24.7806 104.006 25.3535C103.824 25.9264 103.547 26.4277 103.176 26.8574C102.805 27.2806 102.336 27.6094 101.77 27.8438C101.21 28.0781 100.549 28.1953 99.7871 28.1953C99.2142 28.1953 98.6706 28.1172 98.1562 27.9609C97.6484 27.7982 97.1927 27.554 96.7891 27.2285C96.3919 26.8965 96.0664 26.4863 95.8125 25.998C95.5651 25.5033 95.4089 24.9238 95.3438 24.2598H97.0625C97.1406 24.7936 97.2969 25.2428 97.5312 25.6074C97.7656 25.972 98.0716 26.2487 98.4492 26.4375C98.8333 26.6198 99.2793 26.7109 99.7871 26.7109C100.217 26.7109 100.598 26.6361 100.93 26.4863C101.262 26.3366 101.542 26.1217 101.77 25.8418C101.997 25.5618 102.17 25.2233 102.287 24.8262C102.411 24.429 102.473 23.9831 102.473 23.4883C102.473 23.0391 102.411 22.6224 102.287 22.2383C102.163 21.8542 101.978 21.5189 101.73 21.2324C101.49 20.946 101.193 20.7246 100.842 20.5684C100.49 20.4056 100.087 20.3242 99.6309 20.3242C99.0254 20.3242 98.5664 20.4056 98.2539 20.5684C97.9479 20.7311 97.6322 20.9525 97.3066 21.2324ZM115.197 19.7578V21.9258C115.197 23.0911 115.093 24.0742 114.885 24.875C114.676 25.6758 114.377 26.3203 113.986 26.8086C113.596 27.2969 113.124 27.6517 112.57 27.873C112.023 28.0879 111.405 28.1953 110.715 28.1953C110.168 28.1953 109.663 28.127 109.201 27.9902C108.739 27.8535 108.322 27.6354 107.951 27.3359C107.587 27.0299 107.274 26.6328 107.014 26.1445C106.753 25.6562 106.555 25.0638 106.418 24.3672C106.281 23.6706 106.213 22.8568 106.213 21.9258V19.7578C106.213 18.5924 106.317 17.6159 106.525 16.8281C106.74 16.0404 107.043 15.4089 107.434 14.9336C107.824 14.4518 108.293 14.1068 108.84 13.8984C109.393 13.6901 110.012 13.5859 110.695 13.5859C111.249 13.5859 111.757 13.6543 112.219 13.791C112.688 13.9212 113.104 14.1328 113.469 14.4258C113.833 14.7122 114.143 15.0964 114.396 15.5781C114.657 16.0534 114.855 16.6361 114.992 17.3262C115.129 18.0163 115.197 18.8268 115.197 19.7578ZM113.381 22.2188V19.4551C113.381 18.8171 113.342 18.2572 113.264 17.7754C113.192 17.2871 113.085 16.8704 112.941 16.5254C112.798 16.1803 112.616 15.9004 112.395 15.6855C112.18 15.4707 111.929 15.3145 111.643 15.2168C111.363 15.1126 111.047 15.0605 110.695 15.0605C110.266 15.0605 109.885 15.1419 109.553 15.3047C109.221 15.4609 108.941 15.7116 108.713 16.0566C108.492 16.4017 108.322 16.8542 108.205 17.4141C108.088 17.974 108.029 18.6543 108.029 19.4551V22.2188C108.029 22.8568 108.065 23.4199 108.137 23.9082C108.215 24.3965 108.329 24.8197 108.479 25.1777C108.628 25.5293 108.811 25.819 109.025 26.0469C109.24 26.2747 109.488 26.444 109.768 26.5547C110.054 26.6589 110.37 26.7109 110.715 26.7109C111.158 26.7109 111.545 26.6263 111.877 26.457C112.209 26.2878 112.486 26.0241 112.707 25.666C112.935 25.3014 113.104 24.8359 113.215 24.2695C113.326 23.6966 113.381 23.013 113.381 22.2188ZM126.848 20.373V22.0723H117.102V20.373H126.848ZM122.883 16.2227V26.5742H121.076V16.2227H122.883ZM135.832 19.0938V28H134.025V17.4336H135.783L135.832 19.0938ZM139.133 17.375L139.123 19.0547C138.973 19.0221 138.83 19.0026 138.693 18.9961C138.563 18.9831 138.413 18.9766 138.244 18.9766C137.827 18.9766 137.46 19.0417 137.141 19.1719C136.822 19.3021 136.551 19.4844 136.33 19.7188C136.109 19.9531 135.933 20.2331 135.803 20.5586C135.679 20.8776 135.598 21.2292 135.559 21.6133L135.051 21.9062C135.051 21.2682 135.113 20.6693 135.236 20.1094C135.367 19.5495 135.565 19.0547 135.832 18.625C136.099 18.1888 136.438 17.8503 136.848 17.6094C137.264 17.362 137.759 17.2383 138.332 17.2383C138.462 17.2383 138.612 17.2546 138.781 17.2871C138.951 17.3132 139.068 17.3424 139.133 17.375ZM144.992 28.1953C144.257 28.1953 143.589 28.0716 142.99 27.8242C142.398 27.5703 141.887 27.2155 141.457 26.7598C141.034 26.304 140.708 25.7637 140.48 25.1387C140.253 24.5137 140.139 23.8301 140.139 23.0879V22.6777C140.139 21.8184 140.266 21.0534 140.52 20.3828C140.773 19.7057 141.118 19.1328 141.555 18.6641C141.991 18.1953 142.486 17.8405 143.039 17.5996C143.592 17.3587 144.165 17.2383 144.758 17.2383C145.513 17.2383 146.164 17.3685 146.711 17.6289C147.264 17.8893 147.717 18.2539 148.068 18.7227C148.42 19.1849 148.68 19.7318 148.85 20.3633C149.019 20.9883 149.104 21.6719 149.104 22.4141V23.2246H141.213V21.75H147.297V21.6133C147.271 21.1445 147.173 20.6888 147.004 20.2461C146.841 19.8034 146.581 19.4388 146.223 19.1523C145.865 18.8659 145.376 18.7227 144.758 18.7227C144.348 18.7227 143.97 18.8105 143.625 18.9863C143.28 19.1556 142.984 19.4095 142.736 19.748C142.489 20.0866 142.297 20.5 142.16 20.9883C142.023 21.4766 141.955 22.0397 141.955 22.6777V23.0879C141.955 23.5892 142.023 24.0612 142.16 24.5039C142.303 24.9401 142.508 25.3242 142.775 25.6562C143.049 25.9883 143.378 26.2487 143.762 26.4375C144.152 26.6263 144.595 26.7207 145.09 26.7207C145.728 26.7207 146.268 26.5905 146.711 26.3301C147.154 26.0697 147.541 25.7214 147.873 25.2852L148.967 26.1543C148.739 26.4993 148.449 26.8281 148.098 27.1406C147.746 27.4531 147.313 27.707 146.799 27.9023C146.291 28.0977 145.689 28.1953 144.992 28.1953ZM154.289 26.3691L157.18 17.4336H159.025L155.227 28H154.016L154.289 26.3691ZM151.877 17.4336L154.855 26.418L155.061 28H153.85L150.021 17.4336H151.877ZM162.727 17.4336V28H160.91V17.4336H162.727ZM160.773 14.6309C160.773 14.3379 160.861 14.0905 161.037 13.8887C161.219 13.6868 161.486 13.5859 161.838 13.5859C162.183 13.5859 162.447 13.6868 162.629 13.8887C162.818 14.0905 162.912 14.3379 162.912 14.6309C162.912 14.9108 162.818 15.1517 162.629 15.3535C162.447 15.5488 162.183 15.6465 161.838 15.6465C161.486 15.6465 161.219 15.5488 161.037 15.3535C160.861 15.1517 160.773 14.9108 160.773 14.6309ZM170.012 28.1953C169.276 28.1953 168.609 28.0716 168.01 27.8242C167.417 27.5703 166.906 27.2155 166.477 26.7598C166.053 26.304 165.728 25.7637 165.5 25.1387C165.272 24.5137 165.158 23.8301 165.158 23.0879V22.6777C165.158 21.8184 165.285 21.0534 165.539 20.3828C165.793 19.7057 166.138 19.1328 166.574 18.6641C167.01 18.1953 167.505 17.8405 168.059 17.5996C168.612 17.3587 169.185 17.2383 169.777 17.2383C170.533 17.2383 171.184 17.3685 171.73 17.6289C172.284 17.8893 172.736 18.2539 173.088 18.7227C173.439 19.1849 173.7 19.7318 173.869 20.3633C174.038 20.9883 174.123 21.6719 174.123 22.4141V23.2246H166.232V21.75H172.316V21.6133C172.29 21.1445 172.193 20.6888 172.023 20.2461C171.861 19.8034 171.6 19.4388 171.242 19.1523C170.884 18.8659 170.396 18.7227 169.777 18.7227C169.367 18.7227 168.99 18.8105 168.645 18.9863C168.299 19.1556 168.003 19.4095 167.756 19.748C167.508 20.0866 167.316 20.5 167.18 20.9883C167.043 21.4766 166.975 22.0397 166.975 22.6777V23.0879C166.975 23.5892 167.043 24.0612 167.18 24.5039C167.323 24.9401 167.528 25.3242 167.795 25.6562C168.068 25.9883 168.397 26.2487 168.781 26.4375C169.172 26.6263 169.615 26.7207 170.109 26.7207C170.747 26.7207 171.288 26.5905 171.73 26.3301C172.173 26.0697 172.561 25.7214 172.893 25.2852L173.986 26.1543C173.758 26.4993 173.469 26.8281 173.117 27.1406C172.766 27.4531 172.333 27.707 171.818 27.9023C171.311 28.0977 170.708 28.1953 170.012 28.1953ZM178.908 26.125L181.623 17.4336H182.814L182.58 19.1621L179.816 28H178.654L178.908 26.125ZM177.082 17.4336L179.396 26.2227L179.562 28H178.342L175.275 17.4336H177.082ZM185.412 26.1543L187.619 17.4336H189.416L186.35 28H185.139L185.412 26.1543ZM183.078 17.4336L185.734 25.9785L186.037 28H184.885L182.043 19.1426L181.809 17.4336H183.078ZM197.424 25.1973C197.424 24.9368 197.365 24.696 197.248 24.4746C197.137 24.2467 196.906 24.0417 196.555 23.8594C196.21 23.6706 195.689 23.5078 194.992 23.3711C194.406 23.2474 193.876 23.1009 193.4 22.9316C192.932 22.7624 192.531 22.5573 192.199 22.3164C191.874 22.0755 191.623 21.7923 191.447 21.4668C191.271 21.1413 191.184 20.7604 191.184 20.3242C191.184 19.9076 191.275 19.5137 191.457 19.1426C191.646 18.7715 191.91 18.4427 192.248 18.1562C192.593 17.8698 193.007 17.6452 193.488 17.4824C193.97 17.3197 194.507 17.2383 195.1 17.2383C195.946 17.2383 196.669 17.388 197.268 17.6875C197.867 17.987 198.326 18.3874 198.645 18.8887C198.964 19.3835 199.123 19.9336 199.123 20.5391H197.316C197.316 20.2461 197.229 19.9629 197.053 19.6895C196.883 19.4095 196.633 19.1784 196.301 18.9961C195.975 18.8138 195.575 18.7227 195.1 18.7227C194.598 18.7227 194.191 18.8008 193.879 18.957C193.573 19.1068 193.348 19.2988 193.205 19.5332C193.068 19.7676 193 20.015 193 20.2754C193 20.4707 193.033 20.6465 193.098 20.8027C193.169 20.9525 193.293 21.0924 193.469 21.2227C193.645 21.3464 193.892 21.4635 194.211 21.5742C194.53 21.6849 194.937 21.7956 195.432 21.9062C196.298 22.1016 197.01 22.3359 197.57 22.6094C198.13 22.8828 198.547 23.2181 198.82 23.6152C199.094 24.0124 199.23 24.4941 199.23 25.0605C199.23 25.5228 199.133 25.946 198.938 26.3301C198.749 26.7142 198.472 27.0462 198.107 27.3262C197.749 27.5996 197.32 27.8145 196.818 27.9707C196.324 28.1204 195.767 28.1953 195.148 28.1953C194.217 28.1953 193.43 28.0293 192.785 27.6973C192.141 27.3652 191.652 26.9355 191.32 26.4082C190.988 25.8809 190.822 25.3242 190.822 24.7383H192.639C192.665 25.2331 192.808 25.627 193.068 25.9199C193.329 26.2064 193.648 26.4115 194.025 26.5352C194.403 26.6523 194.777 26.7109 195.148 26.7109C195.643 26.7109 196.057 26.6458 196.389 26.5156C196.727 26.3854 196.984 26.2064 197.16 25.9785C197.336 25.7507 197.424 25.4902 197.424 25.1973ZM205.764 22.2188V22.3164C205.764 23.7422 205.604 25.0312 205.285 26.1836C204.966 27.3359 204.559 28.3418 204.064 29.2012C203.57 30.0671 203.049 30.7832 202.502 31.3496C201.955 31.9225 201.451 32.3359 200.988 32.5898L200.607 31.4961C200.992 31.2031 201.379 30.793 201.77 30.2656C202.16 29.7448 202.521 29.1003 202.854 28.332C203.186 27.5703 203.452 26.6914 203.654 25.6953C203.856 24.6927 203.957 23.5729 203.957 22.3359V22.1992C203.957 20.9622 203.85 19.8457 203.635 18.8496C203.42 17.847 203.14 16.9648 202.795 16.2031C202.456 15.4414 202.092 14.8001 201.701 14.2793C201.317 13.752 200.952 13.3451 200.607 13.0586L200.988 11.9551C201.451 12.209 201.955 12.6224 202.502 13.1953C203.049 13.7617 203.57 14.4779 204.064 15.3438C204.559 16.2096 204.966 17.2188 205.285 18.3711C205.604 19.5169 205.764 20.7995 205.764 22.2188Z" fill="black" fill-opacity="0.54"/>
</svg>
